<mxfile host="app.diagrams.net" modified="2023-08-15T07:56:57.305Z" agent="Mozilla/5.0 (Windows NT 10.0; Win64; x64) AppleWebKit/537.36 (KHTML, like Gecko) Chrome/115.0.0.0 Safari/537.36" etag="20rrDxW4tipQzowMm487" version="21.6.8" type="github">
  <diagram id="prtHgNgQTEPvFCAcTncT" name="Page-1">
    <mxGraphModel dx="1434" dy="764" grid="1" gridSize="10" guides="1" tooltips="1" connect="1" arrows="1" fold="1" page="1" pageScale="1" pageWidth="827" pageHeight="1169" math="0" shadow="0">
      <root>
        <mxCell id="0" />
        <mxCell id="1" parent="0" />
        <mxCell id="dNxyNK7c78bLwvsdeMH5-19" value="电子围栏海康子系统" style="swimlane;html=1;childLayout=stackLayout;resizeParent=1;resizeParentMax=0;horizontal=0;startSize=20;horizontalStack=0;fillColor=#F5FF99;" parent="1" vertex="1">
          <mxGeometry x="200" y="70" width="1010" height="650" as="geometry" />
        </mxCell>
        <mxCell id="dNxyNK7c78bLwvsdeMH5-20" value="海康平台" style="swimlane;html=1;startSize=20;horizontal=0;fillColor=#69FF69;" parent="dNxyNK7c78bLwvsdeMH5-19" vertex="1">
          <mxGeometry x="20" width="990" height="130" as="geometry">
            <mxRectangle x="20" width="430" height="30" as="alternateBounds" />
          </mxGeometry>
        </mxCell>
        <mxCell id="dNxyNK7c78bLwvsdeMH5-25" value="" style="edgeStyle=orthogonalEdgeStyle;rounded=0;orthogonalLoop=1;jettySize=auto;html=1;" parent="dNxyNK7c78bLwvsdeMH5-20" source="dNxyNK7c78bLwvsdeMH5-23" target="dNxyNK7c78bLwvsdeMH5-24" edge="1">
          <mxGeometry relative="1" as="geometry" />
        </mxCell>
        <mxCell id="dNxyNK7c78bLwvsdeMH5-23" value="" style="ellipse;whiteSpace=wrap;html=1;fillColor=#CCFF80;" parent="dNxyNK7c78bLwvsdeMH5-20" vertex="1">
          <mxGeometry x="40" y="40" width="40" height="40" as="geometry" />
        </mxCell>
        <mxCell id="dNxyNK7c78bLwvsdeMH5-24" value="入侵事件" style="rounded=0;whiteSpace=wrap;html=1;fontFamily=Helvetica;fontSize=12;fontColor=#000000;align=center;fillColor=#FFF2CC;" parent="dNxyNK7c78bLwvsdeMH5-20" vertex="1">
          <mxGeometry x="120" y="30" width="80" height="60" as="geometry" />
        </mxCell>
        <mxCell id="dNxyNK7c78bLwvsdeMH5-21" value="电子围栏服务" style="swimlane;html=1;startSize=20;horizontal=0;fillColor=#6666FF;" parent="dNxyNK7c78bLwvsdeMH5-19" vertex="1">
          <mxGeometry x="20" y="130" width="990" height="130" as="geometry">
            <mxRectangle x="20" y="30" width="430" height="30" as="alternateBounds" />
          </mxGeometry>
        </mxCell>
        <mxCell id="dNxyNK7c78bLwvsdeMH5-29" value="" style="edgeStyle=orthogonalEdgeStyle;rounded=0;orthogonalLoop=1;jettySize=auto;html=1;endArrow=classic;endFill=1;entryX=0;entryY=0.5;entryDx=0;entryDy=0;" parent="dNxyNK7c78bLwvsdeMH5-21" source="dNxyNK7c78bLwvsdeMH5-26" target="59kwaaPWuVEztnF6kCBR-23" edge="1">
          <mxGeometry relative="1" as="geometry">
            <mxPoint x="260" y="60" as="targetPoint" />
          </mxGeometry>
        </mxCell>
        <mxCell id="59kwaaPWuVEztnF6kCBR-27" style="edgeStyle=orthogonalEdgeStyle;rounded=0;orthogonalLoop=1;jettySize=auto;html=1;entryX=0;entryY=0.5;entryDx=0;entryDy=0;" edge="1" parent="dNxyNK7c78bLwvsdeMH5-21" source="dNxyNK7c78bLwvsdeMH5-26" target="59kwaaPWuVEztnF6kCBR-24">
          <mxGeometry relative="1" as="geometry" />
        </mxCell>
        <mxCell id="59kwaaPWuVEztnF6kCBR-28" style="edgeStyle=orthogonalEdgeStyle;rounded=0;orthogonalLoop=1;jettySize=auto;html=1;entryX=0;entryY=0.5;entryDx=0;entryDy=0;" edge="1" parent="dNxyNK7c78bLwvsdeMH5-21" source="dNxyNK7c78bLwvsdeMH5-26" target="59kwaaPWuVEztnF6kCBR-25">
          <mxGeometry relative="1" as="geometry" />
        </mxCell>
        <mxCell id="59kwaaPWuVEztnF6kCBR-29" style="edgeStyle=orthogonalEdgeStyle;rounded=0;orthogonalLoop=1;jettySize=auto;html=1;entryX=0;entryY=0.5;entryDx=0;entryDy=0;" edge="1" parent="dNxyNK7c78bLwvsdeMH5-21" source="dNxyNK7c78bLwvsdeMH5-26" target="59kwaaPWuVEztnF6kCBR-26">
          <mxGeometry relative="1" as="geometry" />
        </mxCell>
        <mxCell id="dNxyNK7c78bLwvsdeMH5-26" value="事件处理器" style="rounded=0;whiteSpace=wrap;html=1;fontFamily=Helvetica;fontSize=12;fontColor=#000000;align=center;fillColor=#3399FF;" parent="dNxyNK7c78bLwvsdeMH5-21" vertex="1">
          <mxGeometry x="120" y="30" width="80" height="60" as="geometry" />
        </mxCell>
        <mxCell id="59kwaaPWuVEztnF6kCBR-23" value="防区报警" style="rounded=1;whiteSpace=wrap;html=1;fillColor=#FFCCFF;" vertex="1" parent="dNxyNK7c78bLwvsdeMH5-21">
          <mxGeometry x="268" y="10" width="74" height="20" as="geometry" />
        </mxCell>
        <mxCell id="59kwaaPWuVEztnF6kCBR-24" value="子系统消警" style="rounded=1;whiteSpace=wrap;html=1;fillColor=#FFCCFF;" vertex="1" parent="dNxyNK7c78bLwvsdeMH5-21">
          <mxGeometry x="268" y="40" width="74" height="20" as="geometry" />
        </mxCell>
        <mxCell id="59kwaaPWuVEztnF6kCBR-32" style="edgeStyle=orthogonalEdgeStyle;rounded=0;orthogonalLoop=1;jettySize=auto;html=1;entryX=0;entryY=0.5;entryDx=0;entryDy=0;" edge="1" parent="dNxyNK7c78bLwvsdeMH5-21" source="59kwaaPWuVEztnF6kCBR-25" target="59kwaaPWuVEztnF6kCBR-30">
          <mxGeometry relative="1" as="geometry" />
        </mxCell>
        <mxCell id="59kwaaPWuVEztnF6kCBR-25" value="防区旁路" style="rounded=1;whiteSpace=wrap;html=1;fillColor=#FFCCFF;" vertex="1" parent="dNxyNK7c78bLwvsdeMH5-21">
          <mxGeometry x="268" y="70" width="74" height="20" as="geometry" />
        </mxCell>
        <mxCell id="59kwaaPWuVEztnF6kCBR-33" style="edgeStyle=orthogonalEdgeStyle;rounded=0;orthogonalLoop=1;jettySize=auto;html=1;exitX=1;exitY=0.5;exitDx=0;exitDy=0;entryX=0;entryY=0.5;entryDx=0;entryDy=0;" edge="1" parent="dNxyNK7c78bLwvsdeMH5-21" source="59kwaaPWuVEztnF6kCBR-26" target="59kwaaPWuVEztnF6kCBR-30">
          <mxGeometry relative="1" as="geometry" />
        </mxCell>
        <mxCell id="59kwaaPWuVEztnF6kCBR-26" value="防区旁路恢复" style="rounded=1;whiteSpace=wrap;html=1;fillColor=#FFCCFF;" vertex="1" parent="dNxyNK7c78bLwvsdeMH5-21">
          <mxGeometry x="268" y="100" width="74" height="20" as="geometry" />
        </mxCell>
        <mxCell id="59kwaaPWuVEztnF6kCBR-30" value="MQTT推送防区状态改变" style="rounded=0;whiteSpace=wrap;html=1;fillColor=#FF99FF;" vertex="1" parent="dNxyNK7c78bLwvsdeMH5-21">
          <mxGeometry x="430" y="80" width="90" height="30" as="geometry" />
        </mxCell>
        <mxCell id="59kwaaPWuVEztnF6kCBR-49" value="" style="ellipse;html=1;fillColor=#CCCCCC;" vertex="1" parent="dNxyNK7c78bLwvsdeMH5-21">
          <mxGeometry x="553" y="80" width="30" height="30" as="geometry" />
        </mxCell>
        <mxCell id="59kwaaPWuVEztnF6kCBR-50" value="" style="endArrow=open;html=1;rounded=0;align=center;verticalAlign=top;endFill=0;labelBackgroundColor=none;endSize=6;exitX=1;exitY=0.5;exitDx=0;exitDy=0;" edge="1" target="59kwaaPWuVEztnF6kCBR-49" parent="dNxyNK7c78bLwvsdeMH5-21" source="59kwaaPWuVEztnF6kCBR-30">
          <mxGeometry relative="1" as="geometry">
            <mxPoint x="561" y="95" as="sourcePoint" />
          </mxGeometry>
        </mxCell>
        <mxCell id="dNxyNK7c78bLwvsdeMH5-22" value="告警服务" style="swimlane;html=1;startSize=20;horizontal=0;fillColor=#CCCCFF;" parent="dNxyNK7c78bLwvsdeMH5-19" vertex="1">
          <mxGeometry x="20" y="260" width="990" height="200" as="geometry">
            <mxRectangle x="20" y="60" width="430" height="30" as="alternateBounds" />
          </mxGeometry>
        </mxCell>
        <mxCell id="59kwaaPWuVEztnF6kCBR-40" style="rounded=0;orthogonalLoop=1;jettySize=auto;html=1;entryX=0;entryY=0.5;entryDx=0;entryDy=0;edgeStyle=orthogonalEdgeStyle;endArrow=none;endFill=0;dashed=1;" edge="1" parent="dNxyNK7c78bLwvsdeMH5-22" source="dNxyNK7c78bLwvsdeMH5-34" target="59kwaaPWuVEztnF6kCBR-35">
          <mxGeometry relative="1" as="geometry" />
        </mxCell>
        <mxCell id="59kwaaPWuVEztnF6kCBR-41" style="edgeStyle=orthogonalEdgeStyle;rounded=0;orthogonalLoop=1;jettySize=auto;html=1;entryX=0;entryY=0.5;entryDx=0;entryDy=0;endArrow=none;endFill=0;dashed=1;" edge="1" parent="dNxyNK7c78bLwvsdeMH5-22" source="dNxyNK7c78bLwvsdeMH5-34" target="59kwaaPWuVEztnF6kCBR-36">
          <mxGeometry relative="1" as="geometry" />
        </mxCell>
        <mxCell id="59kwaaPWuVEztnF6kCBR-42" style="edgeStyle=orthogonalEdgeStyle;rounded=0;orthogonalLoop=1;jettySize=auto;html=1;entryX=0;entryY=0.5;entryDx=0;entryDy=0;endArrow=none;endFill=0;dashed=1;" edge="1" parent="dNxyNK7c78bLwvsdeMH5-22" source="dNxyNK7c78bLwvsdeMH5-34" target="59kwaaPWuVEztnF6kCBR-37">
          <mxGeometry relative="1" as="geometry" />
        </mxCell>
        <mxCell id="dNxyNK7c78bLwvsdeMH5-34" value="告警" style="rounded=0;whiteSpace=wrap;html=1;fontFamily=Helvetica;fontSize=12;fontColor=#000000;align=center;fillColor=#FF4E33;" parent="dNxyNK7c78bLwvsdeMH5-22" vertex="1">
          <mxGeometry x="437" y="35" width="80" height="30" as="geometry" />
        </mxCell>
        <mxCell id="59kwaaPWuVEztnF6kCBR-73" style="edgeStyle=orthogonalEdgeStyle;rounded=0;orthogonalLoop=1;jettySize=auto;html=1;exitX=1;exitY=0.5;exitDx=0;exitDy=0;entryX=0;entryY=0.5;entryDx=0;entryDy=0;" edge="1" parent="dNxyNK7c78bLwvsdeMH5-22" source="59kwaaPWuVEztnF6kCBR-35" target="59kwaaPWuVEztnF6kCBR-71">
          <mxGeometry relative="1" as="geometry" />
        </mxCell>
        <mxCell id="59kwaaPWuVEztnF6kCBR-35" value="告警触发" style="rounded=1;whiteSpace=wrap;html=1;fillColor=#FF4E33;" vertex="1" parent="dNxyNK7c78bLwvsdeMH5-22">
          <mxGeometry x="561" y="11" width="74" height="20" as="geometry" />
        </mxCell>
        <mxCell id="59kwaaPWuVEztnF6kCBR-36" value="消警触发" style="rounded=1;whiteSpace=wrap;html=1;fillColor=#FF4E33;" vertex="1" parent="dNxyNK7c78bLwvsdeMH5-22">
          <mxGeometry x="561" y="40" width="74" height="20" as="geometry" />
        </mxCell>
        <mxCell id="59kwaaPWuVEztnF6kCBR-37" value="告警配置" style="rounded=1;whiteSpace=wrap;html=1;fillColor=#FF4E33;" vertex="1" parent="dNxyNK7c78bLwvsdeMH5-22">
          <mxGeometry x="561" y="70" width="74" height="20" as="geometry" />
        </mxCell>
        <mxCell id="59kwaaPWuVEztnF6kCBR-67" value="保存视频文件" style="rounded=0;whiteSpace=wrap;html=1;fillColor=#FF4E33;" vertex="1" parent="dNxyNK7c78bLwvsdeMH5-22">
          <mxGeometry x="848" y="60" width="60" height="30" as="geometry" />
        </mxCell>
        <mxCell id="59kwaaPWuVEztnF6kCBR-69" value="" style="ellipse;html=1;fillColor=#CCCCCC;" vertex="1" parent="dNxyNK7c78bLwvsdeMH5-22">
          <mxGeometry x="929" y="60" width="30" height="30" as="geometry" />
        </mxCell>
        <mxCell id="59kwaaPWuVEztnF6kCBR-70" value="" style="endArrow=open;html=1;rounded=0;align=center;verticalAlign=top;endFill=0;labelBackgroundColor=none;endSize=6;exitX=1;exitY=0.5;exitDx=0;exitDy=0;" edge="1" target="59kwaaPWuVEztnF6kCBR-69" parent="dNxyNK7c78bLwvsdeMH5-22" source="59kwaaPWuVEztnF6kCBR-67">
          <mxGeometry relative="1" as="geometry">
            <mxPoint x="889" y="75" as="sourcePoint" />
          </mxGeometry>
        </mxCell>
        <mxCell id="59kwaaPWuVEztnF6kCBR-71" value="告警动作" style="swimlane;whiteSpace=wrap;html=1;fillColor=#CCCCFF;" vertex="1" parent="dNxyNK7c78bLwvsdeMH5-22">
          <mxGeometry x="690" y="11" width="110" height="179" as="geometry" />
        </mxCell>
        <mxCell id="59kwaaPWuVEztnF6kCBR-74" value="站内信提醒" style="rounded=1;whiteSpace=wrap;html=1;fillColor=#CCCCFF;" vertex="1" parent="59kwaaPWuVEztnF6kCBR-71">
          <mxGeometry x="14" y="29" width="82.5" height="20" as="geometry" />
        </mxCell>
        <mxCell id="59kwaaPWuVEztnF6kCBR-75" value="邮件提醒" style="rounded=1;whiteSpace=wrap;html=1;fillColor=#CCCCFF;" vertex="1" parent="59kwaaPWuVEztnF6kCBR-71">
          <mxGeometry x="14" y="60" width="82.5" height="18" as="geometry" />
        </mxCell>
        <mxCell id="59kwaaPWuVEztnF6kCBR-82" value="飞书通知" style="rounded=1;whiteSpace=wrap;html=1;fillColor=#CCCCFF;" vertex="1" parent="59kwaaPWuVEztnF6kCBR-71">
          <mxGeometry x="14" y="89" width="80" height="19.5" as="geometry" />
        </mxCell>
        <mxCell id="59kwaaPWuVEztnF6kCBR-83" value="视频联动" style="rounded=1;whiteSpace=wrap;html=1;fillColor=#CCCCFF;" vertex="1" parent="59kwaaPWuVEztnF6kCBR-71">
          <mxGeometry x="14" y="119" width="82.5" height="18" as="geometry" />
        </mxCell>
        <mxCell id="59kwaaPWuVEztnF6kCBR-84" value="&lt;b&gt;&lt;font style=&quot;font-size: 17px;&quot;&gt;.......&lt;/font&gt;&lt;/b&gt;" style="rounded=1;whiteSpace=wrap;html=1;fillColor=#CCCCFF;" vertex="1" parent="59kwaaPWuVEztnF6kCBR-71">
          <mxGeometry x="14" y="149" width="82.5" height="18" as="geometry" />
        </mxCell>
        <mxCell id="59kwaaPWuVEztnF6kCBR-6" value="视频服务" style="swimlane;html=1;startSize=20;horizontal=0;fillColor=#FFCCE6;" vertex="1" parent="dNxyNK7c78bLwvsdeMH5-19">
          <mxGeometry x="20" y="460" width="990" height="110" as="geometry">
            <mxRectangle x="20" y="60" width="430" height="30" as="alternateBounds" />
          </mxGeometry>
        </mxCell>
        <mxCell id="59kwaaPWuVEztnF6kCBR-59" style="edgeStyle=orthogonalEdgeStyle;rounded=0;orthogonalLoop=1;jettySize=auto;html=1;exitX=1;exitY=0.5;exitDx=0;exitDy=0;entryX=0;entryY=0.5;entryDx=0;entryDy=0;dashed=1;endArrow=none;endFill=0;" edge="1" parent="59kwaaPWuVEztnF6kCBR-6" source="59kwaaPWuVEztnF6kCBR-8" target="59kwaaPWuVEztnF6kCBR-52">
          <mxGeometry relative="1" as="geometry" />
        </mxCell>
        <mxCell id="59kwaaPWuVEztnF6kCBR-8" value="摄像头控制" style="rounded=0;whiteSpace=wrap;html=1;fontFamily=Helvetica;fontSize=12;fontColor=#000000;align=center;fillColor=#66FF66;" vertex="1" parent="59kwaaPWuVEztnF6kCBR-6">
          <mxGeometry x="559" y="8" width="73" height="30" as="geometry" />
        </mxCell>
        <mxCell id="59kwaaPWuVEztnF6kCBR-57" style="edgeStyle=orthogonalEdgeStyle;rounded=0;orthogonalLoop=1;jettySize=auto;html=1;exitX=1;exitY=0.5;exitDx=0;exitDy=0;entryX=0;entryY=0.5;entryDx=0;entryDy=0;endArrow=none;endFill=0;dashed=1;" edge="1" parent="59kwaaPWuVEztnF6kCBR-6" source="59kwaaPWuVEztnF6kCBR-51" target="59kwaaPWuVEztnF6kCBR-53">
          <mxGeometry relative="1" as="geometry" />
        </mxCell>
        <mxCell id="59kwaaPWuVEztnF6kCBR-58" style="edgeStyle=orthogonalEdgeStyle;rounded=0;orthogonalLoop=1;jettySize=auto;html=1;endArrow=none;endFill=0;dashed=1;" edge="1" parent="59kwaaPWuVEztnF6kCBR-6" source="59kwaaPWuVEztnF6kCBR-51" target="59kwaaPWuVEztnF6kCBR-54">
          <mxGeometry relative="1" as="geometry" />
        </mxCell>
        <mxCell id="59kwaaPWuVEztnF6kCBR-51" value="视频任务" style="rounded=0;whiteSpace=wrap;html=1;fontFamily=Helvetica;fontSize=12;fontColor=#000000;align=center;fillColor=#66FF66;" vertex="1" parent="59kwaaPWuVEztnF6kCBR-6">
          <mxGeometry x="559" y="54" width="73" height="30" as="geometry" />
        </mxCell>
        <mxCell id="59kwaaPWuVEztnF6kCBR-52" value="预置位转动" style="rounded=1;whiteSpace=wrap;html=1;fillColor=#66FF66;" vertex="1" parent="59kwaaPWuVEztnF6kCBR-6">
          <mxGeometry x="672" y="13" width="74" height="20" as="geometry" />
        </mxCell>
        <mxCell id="59kwaaPWuVEztnF6kCBR-53" value="视频录制" style="rounded=1;whiteSpace=wrap;html=1;fillColor=#66FF66;" vertex="1" parent="59kwaaPWuVEztnF6kCBR-6">
          <mxGeometry x="672" y="44" width="74" height="20" as="geometry" />
        </mxCell>
        <mxCell id="59kwaaPWuVEztnF6kCBR-54" value="视频抓拍" style="rounded=1;whiteSpace=wrap;html=1;fillColor=#66FF66;" vertex="1" parent="59kwaaPWuVEztnF6kCBR-6">
          <mxGeometry x="672" y="74" width="74" height="20" as="geometry" />
        </mxCell>
        <mxCell id="59kwaaPWuVEztnF6kCBR-22" style="edgeStyle=orthogonalEdgeStyle;rounded=0;orthogonalLoop=1;jettySize=auto;html=1;exitX=0.5;exitY=1;exitDx=0;exitDy=0;entryX=0.5;entryY=0;entryDx=0;entryDy=0;" edge="1" parent="dNxyNK7c78bLwvsdeMH5-19" source="dNxyNK7c78bLwvsdeMH5-24" target="dNxyNK7c78bLwvsdeMH5-26">
          <mxGeometry relative="1" as="geometry" />
        </mxCell>
        <mxCell id="59kwaaPWuVEztnF6kCBR-43" style="edgeStyle=orthogonalEdgeStyle;rounded=0;orthogonalLoop=1;jettySize=auto;html=1;entryX=0;entryY=0.5;entryDx=0;entryDy=0;" edge="1" parent="dNxyNK7c78bLwvsdeMH5-19" source="59kwaaPWuVEztnF6kCBR-23" target="dNxyNK7c78bLwvsdeMH5-34">
          <mxGeometry relative="1" as="geometry">
            <Array as="points">
              <mxPoint x="427" y="150" />
              <mxPoint x="427" y="310" />
            </Array>
          </mxGeometry>
        </mxCell>
        <mxCell id="59kwaaPWuVEztnF6kCBR-44" style="edgeStyle=orthogonalEdgeStyle;rounded=0;orthogonalLoop=1;jettySize=auto;html=1;entryX=0;entryY=0.5;entryDx=0;entryDy=0;" edge="1" parent="dNxyNK7c78bLwvsdeMH5-19" target="dNxyNK7c78bLwvsdeMH5-34">
          <mxGeometry relative="1" as="geometry">
            <mxPoint x="362" y="180.02857142857135" as="sourcePoint" />
            <mxPoint x="442" y="310" as="targetPoint" />
            <Array as="points">
              <mxPoint x="427" y="180" />
              <mxPoint x="427" y="310" />
            </Array>
          </mxGeometry>
        </mxCell>
        <mxCell id="59kwaaPWuVEztnF6kCBR-61" style="edgeStyle=orthogonalEdgeStyle;rounded=0;orthogonalLoop=1;jettySize=auto;html=1;exitX=0.5;exitY=1;exitDx=0;exitDy=0;entryX=0;entryY=0.5;entryDx=0;entryDy=0;" edge="1" parent="dNxyNK7c78bLwvsdeMH5-19" source="dNxyNK7c78bLwvsdeMH5-34" target="59kwaaPWuVEztnF6kCBR-8">
          <mxGeometry relative="1" as="geometry" />
        </mxCell>
        <mxCell id="59kwaaPWuVEztnF6kCBR-62" style="edgeStyle=orthogonalEdgeStyle;rounded=0;orthogonalLoop=1;jettySize=auto;html=1;exitX=0.5;exitY=1;exitDx=0;exitDy=0;entryX=0;entryY=0.5;entryDx=0;entryDy=0;" edge="1" parent="dNxyNK7c78bLwvsdeMH5-19" source="dNxyNK7c78bLwvsdeMH5-34" target="59kwaaPWuVEztnF6kCBR-51">
          <mxGeometry relative="1" as="geometry">
            <Array as="points">
              <mxPoint x="497" y="530" />
              <mxPoint x="579" y="530" />
            </Array>
          </mxGeometry>
        </mxCell>
        <mxCell id="59kwaaPWuVEztnF6kCBR-65" style="edgeStyle=orthogonalEdgeStyle;rounded=0;orthogonalLoop=1;jettySize=auto;html=1;entryX=0.5;entryY=0;entryDx=0;entryDy=0;" edge="1" parent="dNxyNK7c78bLwvsdeMH5-19" source="59kwaaPWuVEztnF6kCBR-51" target="59kwaaPWuVEztnF6kCBR-64">
          <mxGeometry relative="1" as="geometry" />
        </mxCell>
        <mxCell id="59kwaaPWuVEztnF6kCBR-18" value="MinIO服务" style="swimlane;html=1;startSize=20;horizontal=0;fillColor=#990099;" vertex="1" parent="dNxyNK7c78bLwvsdeMH5-19">
          <mxGeometry x="20" y="570" width="990" height="80" as="geometry">
            <mxRectangle x="20" y="60" width="430" height="30" as="alternateBounds" />
          </mxGeometry>
        </mxCell>
        <mxCell id="59kwaaPWuVEztnF6kCBR-63" value="录像、抓拍文件上传" style="rounded=0;whiteSpace=wrap;html=1;fillColor=#FFFF00;" vertex="1" parent="59kwaaPWuVEztnF6kCBR-18">
          <mxGeometry x="687" y="34" width="73" height="30" as="geometry" />
        </mxCell>
        <mxCell id="59kwaaPWuVEztnF6kCBR-66" style="edgeStyle=orthogonalEdgeStyle;rounded=0;orthogonalLoop=1;jettySize=auto;html=1;entryX=0;entryY=0.5;entryDx=0;entryDy=0;" edge="1" parent="59kwaaPWuVEztnF6kCBR-18" source="59kwaaPWuVEztnF6kCBR-64" target="59kwaaPWuVEztnF6kCBR-63">
          <mxGeometry relative="1" as="geometry" />
        </mxCell>
        <mxCell id="59kwaaPWuVEztnF6kCBR-64" value="任务完成" style="rounded=0;whiteSpace=wrap;html=1;fillColor=#FFFF00;" vertex="1" parent="59kwaaPWuVEztnF6kCBR-18">
          <mxGeometry x="560" y="34" width="71" height="30" as="geometry" />
        </mxCell>
        <mxCell id="59kwaaPWuVEztnF6kCBR-68" style="edgeStyle=orthogonalEdgeStyle;rounded=0;orthogonalLoop=1;jettySize=auto;html=1;entryX=0.5;entryY=1;entryDx=0;entryDy=0;" edge="1" parent="dNxyNK7c78bLwvsdeMH5-19" source="59kwaaPWuVEztnF6kCBR-63" target="59kwaaPWuVEztnF6kCBR-67">
          <mxGeometry relative="1" as="geometry" />
        </mxCell>
      </root>
    </mxGraphModel>
  </diagram>
</mxfile>
